Coordinates
version=1
nRows=11
nColumns=36
inDegrees=yes

Units are S.I. units (second, meters, Newtons, ...)
If the header above contains a line with 'inDegrees', this indicates whether rotational values are in degrees (yes) or radians (no).

endheader
time	pelvis_tilt	pelvis_list	pelvis_rotation	pelvis_tx	pelvis_ty	pelvis_tz	hip_flexion_r	hip_adduction_r	hip_rotation_r	knee_angle_r	knee_angle_r_beta	ankle_angle_r	subtalar_angle_r	mtp_angle_r	hip_flexion_l	hip_adduction_l	hip_rotation_l	knee_angle_l	knee_angle_l_beta	ankle_angle_l	subtalar_angle_l	mtp_angle_l	lumbar_extension	lumbar_bending	lumbar_rotation	arm_flex_r	arm_add_r	arm_rot_r	elbow_flex_r	pro_sup_r	arm_flex_l	arm_add_l	arm_rot_l	elbow_flex_l	pro_sup_l
      2.95000000	    -39.19947739	     -3.24870914	     -2.66355492	      1.19059800	      0.59259667	     -0.08775867	    102.10219142	    -14.79916281	     -3.56815122	     92.24243310	      1.60993417	     38.32301115	    -11.19336553	     -7.49999987	    106.17663591	    -20.36259279	      8.64430202	     94.09490840	      1.64226596	     33.66892377	     -6.85342324	     -7.49999987	    -23.43171174	      5.57478812	     12.00583420	     68.26493968	    -17.14023374	     82.25683542	    123.97894279	     79.47913121	     63.16949907	     -2.91974178	     61.52303675	    122.11869732	    101.44015085
      2.96666670	    -39.05849715	     -3.15041972	     -2.61411106	      1.19073932	      0.59297594	     -0.08701017	    101.98813337	    -14.86178072	     -3.47107782	     92.08679466	      1.60721776	     38.23777906	    -10.92868865	     -7.49999987	    105.97879647	    -20.29556843	      8.43862222	     93.97853907	      1.64023493	     33.52309926	     -7.03277716	     -7.49999987	    -23.37583867	      5.46226610	     11.91873808	     68.12701025	    -17.38624572	     81.85208515	    123.36308408	     77.90230332	     63.72542724	     -3.40803694	     61.55955239	    122.19093648	    100.26475260
      2.98333330	    -38.85196862	     -3.09746684	     -2.54064341	      1.19024636	      0.59614252	     -0.09342649	    101.65057123	    -15.02525744	     -3.51130708	     91.72040563	      1.60082307	     37.95208961	    -10.97359564	     -7.49999987	    105.57868245	    -20.12765679	      8.22884420	     93.71450292	      1.63562663	     33.33849093	     -7.24600838	     -7.49999987	    -23.34284996	      5.54514898	     11.76722045	     67.86688336	    -18.48681404	     83.36932417	    122.66115348	     78.06586284	     63.85452512	     -3.20991376	     61.69048847	    120.77028933	    100.41579815
      3.00000000	    -38.64290083	     -3.05914401	     -2.60146762	      1.19547082	      0.59823549	     -0.09575263	    101.13748458	    -15.05191446	     -3.61085218	     91.23764422	      1.59239729	     37.81227906	    -10.85678022	     -7.49999987	    105.03902918	    -20.04934190	      8.09603562	     93.39570665	      1.63006259	     33.34561431	     -7.27227902	     -7.49999987	    -23.13890110	      5.55337851	     11.53925997	     66.81169530	    -18.62846401	     84.40466987	    122.94929933	     78.15600172	     63.28037292	     -3.11246564	     62.09107961	    120.91506563	    100.47261061
      3.01666670	    -38.54606894	     -2.90344803	     -2.52690122	      1.19605607	      0.60367777	     -0.09082575	    100.64815621	    -15.11614403	     -3.49737339	     90.68005138	      1.58266546	     37.66148261	    -10.74522482	     -7.49999987	    104.38189380	    -19.86028711	      7.77526535	     92.90891311	      1.62156644	     33.42797924	     -7.29462152	     -7.49999987	    -22.90202265	      5.36106570	     11.52163090	     66.90234107	    -18.30258198	     86.93623860	    122.30717520	     78.49605800	     62.86500318	     -3.66357285	     63.31524107	    120.43255055	    100.72169148
      3.03333330	    -38.24399051	     -2.83797610	     -2.54941084	      1.20616103	      0.60688448	     -0.09678130	     99.67560558	    -15.11695904	     -3.53337949	     89.96152483	      1.57012481	     37.59893043	    -10.69588162	     -7.49999987	    103.33252494	    -19.73167454	      7.53811681	     92.34683507	      1.61175633	     33.58496078	     -7.28655814	     -7.49999987	    -22.89332558	      5.41481226	     11.34183676	     66.30824233	    -17.86162419	     88.58723937	    122.99743173	     78.96166367	     61.62566195	     -3.21127540	     63.10529681	    121.96203615	    101.07322381
      3.05000000	    -38.28753504	     -2.88572273	     -2.55662209	      1.20660346	      0.61280965	     -0.09111787	     98.84505261	    -15.06572556	     -3.71510436	     89.06740809	      1.55451953	     37.52217516	    -10.65733664	     -7.49999987	    102.52762654	    -19.67984003	      7.32599869	     91.54907490	      1.59783278	     33.69352278	     -7.23164201	     -7.49999987	    -22.46474118	      5.39102823	     11.46713809	     65.57338978	    -17.44615257	     88.86853805	    122.93524836	     79.00358901	     61.21273471	     -3.21309848	     63.27062925	    122.07209396	    101.11201489
      3.06666670	    -37.83203799	     -2.86012369	     -2.57876666	      1.19543531	      0.61424528	     -0.08971107	     97.85693049	    -14.88202257	     -3.72901106	     88.43912208	      1.54355387	     37.22167480	    -10.80559413	     -7.49999987	    101.49469012	    -19.91553247	      6.94131370	     90.97739816	      1.58785514	     33.88027494	     -6.87887830	     -7.49999987	    -22.72420077	      5.34528024	     10.95593798	     66.70471834	    -16.05157919	     87.38977730	    121.61103979	     80.26681450	     61.91387122	     -3.88808951	     62.25610002	    123.24902559	    102.11913308
      3.08333330	    -37.93396203	     -2.88545007	     -2.62202363	      1.20060894	      0.61529790	     -0.09417423	     97.48503824	    -14.85594410	     -3.94313741	     87.84591350	      1.53320043	     37.17969749	    -10.75602824	     -7.49999987	    101.16711041	    -20.02950210	      6.66688267	     90.45572083	      1.57875016	     33.84611977	     -6.82321574	     -7.49999987	    -22.26429622	      5.38918325	     10.80149294	     66.95374617	    -15.79069944	     87.10503803	    121.82646672	     80.27522164	     61.88415798	     -3.52982583	     62.24926026	    123.30171357	    102.14035848
      3.10000000	    -38.10158443	     -2.85920818	     -2.67838114	      1.18916938	      0.62104075	     -0.09845124	     97.31887077	    -14.87652888	     -4.17957491	     87.18195603	      1.52161218	     36.93397099	    -10.64480271	     -7.49999987	    101.00764632	    -20.10199697	      6.35469473	     89.89196688	      1.56891079	     33.60471990	     -6.69206793	     -7.49999987	    -22.34280002	      5.45537994	     10.46452930	     67.47458880	    -16.46384044	     86.71598418	    121.65681503	     80.26951788	     61.91466749	     -3.65723678	     62.00328228	    122.78862323	    102.16690158
      3.11666670	    -38.18654632	     -2.83052124	     -2.65659415	      1.18431581	      0.62474156	     -0.09678093	     97.14207264	    -15.01676211	     -4.44972050	     86.54306051	      1.51046135	     36.68345804	    -10.51533704	     -7.49999987	    100.86259222	    -20.09490598	      5.99671654	     89.36351514	      1.55968757	     33.37578976	     -6.61628258	     -7.49999987	    -22.32184274	      5.50624732	     10.51259873	     67.52390249	    -16.70982287	     86.70777534	    121.46008636	     80.27604293	     62.23124555	     -3.79629019	     61.72279473	    122.39704931	    102.17363464
